<svg version="1.1" xmlns="http://www.w3.org/2000/svg" xmlns:xlink="http://www.w3.org/1999/xlink" width="2900" height="2450"><g fill="none" fill-rule="nonzero" stroke="none" stroke-width="none" stroke-linecap="butt" stroke-linejoin="miter" stroke-miterlimit="10" stroke-dasharray="" stroke-dashoffset="0" font-family="sans-serif" font-weight="normal" font-size="11px" text-anchor="start" style="mix-blend-mode: normal"><g><g><line x1="540" y1="414.40843" x2="728" y2="302.5" fill="none" stroke="#ff7373" stroke-width="1.5"/><circle cx="540" cy="414.40843" r="0.25" data-paper-data="{&quot;type&quot;:&quot;Ellipse&quot;}" fill="#bbbbbb" stroke="none" stroke-width="1"/><circle cx="728" cy="302.5" r="0.25" data-paper-data="{&quot;type&quot;:&quot;Ellipse&quot;}" fill="#bbbbbb" stroke="none" stroke-width="1"/></g><g><line x1="540" y1="362.15245" x2="728" y2="279.6" fill="none" stroke="#ff5e5e" stroke-width="1.5"/><circle cx="540" cy="362.15245" r="0.25" data-paper-data="{&quot;type&quot;:&quot;Ellipse&quot;}" fill="#bbbbbb" stroke="none" stroke-width="1"/><circle cx="728" cy="279.6" r="0.25" data-paper-data="{&quot;type&quot;:&quot;Ellipse&quot;}" fill="#bbbbbb" stroke="none" stroke-width="1"/></g><g><line x1="540" y1="483.19246" x2="728" y2="646" fill="none" stroke="#0080ff" stroke-width="1.5"/><circle cx="540" cy="483.19246" r="0.25" data-paper-data="{&quot;type&quot;:&quot;Ellipse&quot;}" fill="#bbbbbb" stroke="none" stroke-width="1"/><circle cx="728" cy="646" r="0.25" data-paper-data="{&quot;type&quot;:&quot;Ellipse&quot;}" fill="#bbbbbb" stroke="none" stroke-width="1"/></g><g><line x1="540" y1="445.62873" x2="728" y2="474.25" fill="none" stroke="#b6dbff" stroke-width="1.5"/><circle cx="540" cy="445.62873" r="0.25" data-paper-data="{&quot;type&quot;:&quot;Ellipse&quot;}" fill="#bbbbbb" stroke="none" stroke-width="1"/><circle cx="728" cy="474.25" r="0.25" data-paper-data="{&quot;type&quot;:&quot;Ellipse&quot;}" fill="#bbbbbb" stroke="none" stroke-width="1"/></g><g><line x1="540" y1="466.0217" x2="728" y2="518.77778" fill="none" stroke="#7ebeff" stroke-width="1.5"/><circle cx="540" cy="466.0217" r="0.25" data-paper-data="{&quot;type&quot;:&quot;Ellipse&quot;}" fill="#bbbbbb" stroke="none" stroke-width="1"/><circle cx="728" cy="518.77778" r="0.25" data-paper-data="{&quot;type&quot;:&quot;Ellipse&quot;}" fill="#bbbbbb" stroke="none" stroke-width="1"/></g><g><line x1="540" y1="359.08375" x2="728" y2="188" fill="none" stroke="#ff0000" stroke-width="1.5"/><circle cx="540" cy="359.08375" r="0.25" data-paper-data="{&quot;type&quot;:&quot;Ellipse&quot;}" fill="#bbbbbb" stroke="none" stroke-width="1"/><circle cx="728" cy="188" r="0.25" data-paper-data="{&quot;type&quot;:&quot;Ellipse&quot;}" fill="#bbbbbb" stroke="none" stroke-width="1"/></g><g><line x1="540" y1="469.81519" x2="728" y2="646" fill="none" stroke="#0080ff" stroke-width="1.5"/><circle cx="540" cy="469.81519" r="0.25" data-paper-data="{&quot;type&quot;:&quot;Ellipse&quot;}" fill="#bbbbbb" stroke="none" stroke-width="1"/><circle cx="728" cy="646" r="0.25" data-paper-data="{&quot;type&quot;:&quot;Ellipse&quot;}" fill="#bbbbbb" stroke="none" stroke-width="1"/></g><g><line x1="540" y1="385.7067" x2="728" y2="289.77778" fill="none" stroke="#ff6767" stroke-width="1.5"/><circle cx="540" cy="385.7067" r="0.25" data-paper-data="{&quot;type&quot;:&quot;Ellipse&quot;}" fill="#bbbbbb" stroke="none" stroke-width="1"/><circle cx="728" cy="289.77778" r="0.25" data-paper-data="{&quot;type&quot;:&quot;Ellipse&quot;}" fill="#bbbbbb" stroke="none" stroke-width="1"/></g><g><line x1="540" y1="494.83346" x2="728" y2="588.75" fill="none" stroke="#3399ff" stroke-width="1.5"/><circle cx="540" cy="494.83346" r="0.25" data-paper-data="{&quot;type&quot;:&quot;Ellipse&quot;}" fill="#bbbbbb" stroke="none" stroke-width="1"/><circle cx="728" cy="588.75" r="0.25" data-paper-data="{&quot;type&quot;:&quot;Ellipse&quot;}" fill="#bbbbbb" stroke="none" stroke-width="1"/></g><g><line x1="540" y1="426.85226" x2="728" y2="264.33333" fill="none" stroke="#ff4e4e" stroke-width="1.5"/><circle cx="540" cy="426.85226" r="0.25" data-paper-data="{&quot;type&quot;:&quot;Ellipse&quot;}" fill="#bbbbbb" stroke="none" stroke-width="1"/><circle cx="728" cy="264.33333" r="0.25" data-paper-data="{&quot;type&quot;:&quot;Ellipse&quot;}" fill="#bbbbbb" stroke="none" stroke-width="1"/></g><g><line x1="540" y1="361.91987" x2="728" y2="188" fill="none" stroke="#ff0000" stroke-width="1.5"/><circle cx="540" cy="361.91987" r="0.25" data-paper-data="{&quot;type&quot;:&quot;Ellipse&quot;}" fill="#bbbbbb" stroke="none" stroke-width="1"/><circle cx="728" cy="188" r="0.25" data-paper-data="{&quot;type&quot;:&quot;Ellipse&quot;}" fill="#bbbbbb" stroke="none" stroke-width="1"/></g><g><line x1="540" y1="354.44618" x2="728" y2="188" fill="none" stroke="#ff0000" stroke-width="1.5"/><circle cx="540" cy="354.44618" r="0.25" data-paper-data="{&quot;type&quot;:&quot;Ellipse&quot;}" fill="#bbbbbb" stroke="none" stroke-width="1"/><circle cx="728" cy="188" r="0.25" data-paper-data="{&quot;type&quot;:&quot;Ellipse&quot;}" fill="#bbbbbb" stroke="none" stroke-width="1"/></g><g><line x1="540" y1="374.58585" x2="728" y2="289.77778" fill="none" stroke="#ff6767" stroke-width="1.5"/><circle cx="540" cy="374.58585" r="0.25" data-paper-data="{&quot;type&quot;:&quot;Ellipse&quot;}" fill="#bbbbbb" stroke="none" stroke-width="1"/><circle cx="728" cy="289.77778" r="0.25" data-paper-data="{&quot;type&quot;:&quot;Ellipse&quot;}" fill="#bbbbbb" stroke="none" stroke-width="1"/></g><g><line x1="540" y1="415.13031" x2="728" y2="417" fill="none" stroke="#dfc4d4" stroke-width="1.5"/><circle cx="540" cy="415.13031" r="0.25" data-paper-data="{&quot;type&quot;:&quot;Ellipse&quot;}" fill="#bbbbbb" stroke="none" stroke-width="1"/><circle cx="728" cy="417" r="0.25" data-paper-data="{&quot;type&quot;:&quot;Ellipse&quot;}" fill="#bbbbbb" stroke="none" stroke-width="1"/></g><g><line x1="540" y1="432.39648" x2="728" y2="531.5" fill="none" stroke="#6eb6ff" stroke-width="1.5"/><circle cx="540" cy="432.39648" r="0.25" data-paper-data="{&quot;type&quot;:&quot;Ellipse&quot;}" fill="#bbbbbb" stroke="none" stroke-width="1"/><circle cx="728" cy="531.5" r="0.25" data-paper-data="{&quot;type&quot;:&quot;Ellipse&quot;}" fill="#bbbbbb" stroke="none" stroke-width="1"/></g><g><line x1="540" y1="439.48131" x2="728" y2="417" fill="none" stroke="#dfc4d4" stroke-width="1.5"/><circle cx="540" cy="439.48131" r="0.25" data-paper-data="{&quot;type&quot;:&quot;Ellipse&quot;}" fill="#bbbbbb" stroke="none" stroke-width="1"/><circle cx="728" cy="417" r="0.25" data-paper-data="{&quot;type&quot;:&quot;Ellipse&quot;}" fill="#bbbbbb" stroke="none" stroke-width="1"/></g><g><line x1="540" y1="398.93072" x2="728" y2="302.5" fill="none" stroke="#ff7373" stroke-width="1.5"/><circle cx="540" cy="398.93072" r="0.25" data-paper-data="{&quot;type&quot;:&quot;Ellipse&quot;}" fill="#bbbbbb" stroke="none" stroke-width="1"/><circle cx="728" cy="302.5" r="0.25" data-paper-data="{&quot;type&quot;:&quot;Ellipse&quot;}" fill="#bbbbbb" stroke="none" stroke-width="1"/></g><g><line x1="540" y1="376.22991" x2="728" y2="188" fill="none" stroke="#ff0000" stroke-width="1.5"/><circle cx="540" cy="376.22991" r="0.25" data-paper-data="{&quot;type&quot;:&quot;Ellipse&quot;}" fill="#bbbbbb" stroke="none" stroke-width="1"/><circle cx="728" cy="188" r="0.25" data-paper-data="{&quot;type&quot;:&quot;Ellipse&quot;}" fill="#bbbbbb" stroke="none" stroke-width="1"/></g><g><line x1="540" y1="436.69202" x2="728" y2="462.8" fill="none" stroke="#bfd8f8" stroke-width="1.5"/><circle cx="540" cy="436.69202" r="0.25" data-paper-data="{&quot;type&quot;:&quot;Ellipse&quot;}" fill="#bbbbbb" stroke="none" stroke-width="1"/><circle cx="728" cy="462.8" r="0.25" data-paper-data="{&quot;type&quot;:&quot;Ellipse&quot;}" fill="#bbbbbb" stroke="none" stroke-width="1"/></g><g><line x1="540" y1="467.56622" x2="728" y2="554.4" fill="none" stroke="#51a8ff" stroke-width="1.5"/><circle cx="540" cy="467.56622" r="0.25" data-paper-data="{&quot;type&quot;:&quot;Ellipse&quot;}" fill="#bbbbbb" stroke="none" stroke-width="1"/><circle cx="728" cy="554.4" r="0.25" data-paper-data="{&quot;type&quot;:&quot;Ellipse&quot;}" fill="#bbbbbb" stroke="none" stroke-width="1"/></g><g><line x1="540" y1="470.90601" x2="728" y2="646" fill="none" stroke="#0080ff" stroke-width="1.5"/><circle cx="540" cy="470.90601" r="0.25" data-paper-data="{&quot;type&quot;:&quot;Ellipse&quot;}" fill="#bbbbbb" stroke="none" stroke-width="1"/><circle cx="728" cy="646" r="0.25" data-paper-data="{&quot;type&quot;:&quot;Ellipse&quot;}" fill="#bbbbbb" stroke="none" stroke-width="1"/></g><g><line x1="540" y1="408.05827" x2="728" y2="188" fill="none" stroke="#ff0000" stroke-width="1.5"/><circle cx="540" cy="408.05827" r="0.25" data-paper-data="{&quot;type&quot;:&quot;Ellipse&quot;}" fill="#bbbbbb" stroke="none" stroke-width="1"/><circle cx="728" cy="188" r="0.25" data-paper-data="{&quot;type&quot;:&quot;Ellipse&quot;}" fill="#bbbbbb" stroke="none" stroke-width="1"/></g><g><line x1="540" y1="489.42543" x2="728" y2="568.04255" fill="none" stroke="#45a2ff" stroke-width="1.5"/><circle cx="540" cy="489.42543" r="0.25" data-paper-data="{&quot;type&quot;:&quot;Ellipse&quot;}" fill="#bbbbbb" stroke="none" stroke-width="1"/><circle cx="728" cy="568.04255" r="0.25" data-paper-data="{&quot;type&quot;:&quot;Ellipse&quot;}" fill="#bbbbbb" stroke="none" stroke-width="1"/></g><g><line x1="540" y1="497.7575" x2="728" y2="646" fill="none" stroke="#0080ff" stroke-width="1.5"/><circle cx="540" cy="497.7575" r="0.25" data-paper-data="{&quot;type&quot;:&quot;Ellipse&quot;}" fill="#bbbbbb" stroke="none" stroke-width="1"/><circle cx="728" cy="646" r="0.25" data-paper-data="{&quot;type&quot;:&quot;Ellipse&quot;}" fill="#bbbbbb" stroke="none" stroke-width="1"/></g><g><line x1="540" y1="378.47003" x2="728" y2="188" fill="none" stroke="#ff0000" stroke-width="1.5"/><circle cx="540" cy="378.47003" r="0.25" data-paper-data="{&quot;type&quot;:&quot;Ellipse&quot;}" fill="#bbbbbb" stroke="none" stroke-width="1"/><circle cx="728" cy="188" r="0.25" data-paper-data="{&quot;type&quot;:&quot;Ellipse&quot;}" fill="#bbbbbb" stroke="none" stroke-width="1"/></g><g><line x1="540" y1="396.32743" x2="728" y2="318.85714" fill="none" stroke="#ff8181" stroke-width="1.5"/><circle cx="540" cy="396.32743" r="0.25" data-paper-data="{&quot;type&quot;:&quot;Ellipse&quot;}" fill="#bbbbbb" stroke="none" stroke-width="1"/><circle cx="728" cy="318.85714" r="0.25" data-paper-data="{&quot;type&quot;:&quot;Ellipse&quot;}" fill="#bbbbbb" stroke="none" stroke-width="1"/></g><g><line x1="540" y1="446.78509" x2="728" y2="646" fill="none" stroke="#0080ff" stroke-width="1.5"/><circle cx="540" cy="446.78509" r="0.25" data-paper-data="{&quot;type&quot;:&quot;Ellipse&quot;}" fill="#bbbbbb" stroke="none" stroke-width="1"/><circle cx="728" cy="646" r="0.25" data-paper-data="{&quot;type&quot;:&quot;Ellipse&quot;}" fill="#bbbbbb" stroke="none" stroke-width="1"/></g><g><line x1="540" y1="407.61217" x2="728" y2="318.85714" fill="none" stroke="#ff8181" stroke-width="1.5"/><circle cx="540" cy="407.61217" r="0.25" data-paper-data="{&quot;type&quot;:&quot;Ellipse&quot;}" fill="#bbbbbb" stroke="none" stroke-width="1"/><circle cx="728" cy="318.85714" r="0.25" data-paper-data="{&quot;type&quot;:&quot;Ellipse&quot;}" fill="#bbbbbb" stroke="none" stroke-width="1"/></g><g><line x1="540" y1="527.13379" x2="728" y2="646" fill="none" stroke="#0080ff" stroke-width="1.5"/><circle cx="540" cy="527.13379" r="0.25" data-paper-data="{&quot;type&quot;:&quot;Ellipse&quot;}" fill="#bbbbbb" stroke="none" stroke-width="1"/><circle cx="728" cy="646" r="0.25" data-paper-data="{&quot;type&quot;:&quot;Ellipse&quot;}" fill="#bbbbbb" stroke="none" stroke-width="1"/></g><g><line x1="540" y1="399.33586" x2="728" y2="325.4" fill="none" stroke="#ff8787" stroke-width="1.5"/><circle cx="540" cy="399.33586" r="0.25" data-paper-data="{&quot;type&quot;:&quot;Ellipse&quot;}" fill="#bbbbbb" stroke="none" stroke-width="1"/><circle cx="728" cy="325.4" r="0.25" data-paper-data="{&quot;type&quot;:&quot;Ellipse&quot;}" fill="#bbbbbb" stroke="none" stroke-width="1"/></g><g><line x1="540" y1="369.82985" x2="728" y2="188" fill="none" stroke="#ff0000" stroke-width="1.5"/><circle cx="540" cy="369.82985" r="0.25" data-paper-data="{&quot;type&quot;:&quot;Ellipse&quot;}" fill="#bbbbbb" stroke="none" stroke-width="1"/><circle cx="728" cy="188" r="0.25" data-paper-data="{&quot;type&quot;:&quot;Ellipse&quot;}" fill="#bbbbbb" stroke="none" stroke-width="1"/></g><g><line x1="540" y1="430.15469" x2="728" y2="403.52941" fill="none" stroke="#e9bec9" stroke-width="1.5"/><circle cx="540" cy="430.15469" r="0.25" data-paper-data="{&quot;type&quot;:&quot;Ellipse&quot;}" fill="#bbbbbb" stroke="none" stroke-width="1"/><circle cx="728" cy="403.52941" r="0.25" data-paper-data="{&quot;type&quot;:&quot;Ellipse&quot;}" fill="#bbbbbb" stroke="none" stroke-width="1"/></g><g><line x1="540" y1="398.61952" x2="728" y2="354.54545" fill="none" stroke="#ffa1a1" stroke-width="1.5"/><circle cx="540" cy="398.61952" r="0.25" data-paper-data="{&quot;type&quot;:&quot;Ellipse&quot;}" fill="#bbbbbb" stroke="none" stroke-width="1"/><circle cx="728" cy="354.54545" r="0.25" data-paper-data="{&quot;type&quot;:&quot;Ellipse&quot;}" fill="#bbbbbb" stroke="none" stroke-width="1"/></g><g><line x1="540" y1="397.91177" x2="728" y2="188" fill="none" stroke="#ff0000" stroke-width="1.5"/><circle cx="540" cy="397.91177" r="0.25" data-paper-data="{&quot;type&quot;:&quot;Ellipse&quot;}" fill="#bbbbbb" stroke="none" stroke-width="1"/><circle cx="728" cy="188" r="0.25" data-paper-data="{&quot;type&quot;:&quot;Ellipse&quot;}" fill="#bbbbbb" stroke="none" stroke-width="1"/></g><g><line x1="540" y1="373.09564" x2="728" y2="264.33333" fill="none" stroke="#ff4e4e" stroke-width="1.5"/><circle cx="540" cy="373.09564" r="0.25" data-paper-data="{&quot;type&quot;:&quot;Ellipse&quot;}" fill="#bbbbbb" stroke="none" stroke-width="1"/><circle cx="728" cy="264.33333" r="0.25" data-paper-data="{&quot;type&quot;:&quot;Ellipse&quot;}" fill="#bbbbbb" stroke="none" stroke-width="1"/></g><g><line x1="540" y1="541.36031" x2="728" y2="646" fill="none" stroke="#0080ff" stroke-width="1.5"/><circle cx="540" cy="541.36031" r="0.25" data-paper-data="{&quot;type&quot;:&quot;Ellipse&quot;}" fill="#bbbbbb" stroke="none" stroke-width="1"/><circle cx="728" cy="646" r="0.25" data-paper-data="{&quot;type&quot;:&quot;Ellipse&quot;}" fill="#bbbbbb" stroke="none" stroke-width="1"/></g><g><line x1="540" y1="360.14722" x2="728" y2="188" fill="none" stroke="#ff0000" stroke-width="1.5"/><circle cx="540" cy="360.14722" r="0.25" data-paper-data="{&quot;type&quot;:&quot;Ellipse&quot;}" fill="#bbbbbb" stroke="none" stroke-width="1"/><circle cx="728" cy="188" r="0.25" data-paper-data="{&quot;type&quot;:&quot;Ellipse&quot;}" fill="#bbbbbb" stroke="none" stroke-width="1"/></g><g><line x1="540" y1="393.69288" x2="728" y2="302.5" fill="none" stroke="#ff7373" stroke-width="1.5"/><circle cx="540" cy="393.69288" r="0.25" data-paper-data="{&quot;type&quot;:&quot;Ellipse&quot;}" fill="#bbbbbb" stroke="none" stroke-width="1"/><circle cx="728" cy="302.5" r="0.25" data-paper-data="{&quot;type&quot;:&quot;Ellipse&quot;}" fill="#bbbbbb" stroke="none" stroke-width="1"/></g><g><line x1="540" y1="406.58419" x2="728" y2="302.5" fill="none" stroke="#ff7373" stroke-width="1.5"/><circle cx="540" cy="406.58419" r="0.25" data-paper-data="{&quot;type&quot;:&quot;Ellipse&quot;}" fill="#bbbbbb" stroke="none" stroke-width="1"/><circle cx="728" cy="302.5" r="0.25" data-paper-data="{&quot;type&quot;:&quot;Ellipse&quot;}" fill="#bbbbbb" stroke="none" stroke-width="1"/></g><g><line x1="540" y1="341.492" x2="728" y2="188" fill="none" stroke="#ff0000" stroke-width="1.5"/><circle cx="540" cy="341.492" r="0.25" data-paper-data="{&quot;type&quot;:&quot;Ellipse&quot;}" fill="#bbbbbb" stroke="none" stroke-width="1"/><circle cx="728" cy="188" r="0.25" data-paper-data="{&quot;type&quot;:&quot;Ellipse&quot;}" fill="#bbbbbb" stroke="none" stroke-width="1"/></g><g><line x1="540" y1="485.88984" x2="728" y2="646" fill="none" stroke="#0080ff" stroke-width="1.5"/><circle cx="540" cy="485.88984" r="0.25" data-paper-data="{&quot;type&quot;:&quot;Ellipse&quot;}" fill="#bbbbbb" stroke="none" stroke-width="1"/><circle cx="728" cy="646" r="0.25" data-paper-data="{&quot;type&quot;:&quot;Ellipse&quot;}" fill="#bbbbbb" stroke="none" stroke-width="1"/></g><g><line x1="540" y1="369.66256" x2="728" y2="188" fill="none" stroke="#ff0000" stroke-width="1.5"/><circle cx="540" cy="369.66256" r="0.25" data-paper-data="{&quot;type&quot;:&quot;Ellipse&quot;}" fill="#bbbbbb" stroke="none" stroke-width="1"/><circle cx="728" cy="188" r="0.25" data-paper-data="{&quot;type&quot;:&quot;Ellipse&quot;}" fill="#bbbbbb" stroke="none" stroke-width="1"/></g><g><line x1="540" y1="439.03887" x2="728" y2="449.71429" fill="none" stroke="#c8d2ee" stroke-width="1.5"/><circle cx="540" cy="439.03887" r="0.25" data-paper-data="{&quot;type&quot;:&quot;Ellipse&quot;}" fill="#bbbbbb" stroke="none" stroke-width="1"/><circle cx="728" cy="449.71429" r="0.25" data-paper-data="{&quot;type&quot;:&quot;Ellipse&quot;}" fill="#bbbbbb" stroke="none" stroke-width="1"/></g><g><line x1="540" y1="464.52813" x2="728" y2="604.36364" fill="none" stroke="#2592ff" stroke-width="1.5"/><circle cx="540" cy="464.52813" r="0.25" data-paper-data="{&quot;type&quot;:&quot;Ellipse&quot;}" fill="#bbbbbb" stroke="none" stroke-width="1"/><circle cx="728" cy="604.36364" r="0.25" data-paper-data="{&quot;type&quot;:&quot;Ellipse&quot;}" fill="#bbbbbb" stroke="none" stroke-width="1"/></g><g><line x1="540" y1="487.14242" x2="728" y2="531.5" fill="none" stroke="#6eb6ff" stroke-width="1.5"/><circle cx="540" cy="487.14242" r="0.25" data-paper-data="{&quot;type&quot;:&quot;Ellipse&quot;}" fill="#bbbbbb" stroke="none" stroke-width="1"/><circle cx="728" cy="531.5" r="0.25" data-paper-data="{&quot;type&quot;:&quot;Ellipse&quot;}" fill="#bbbbbb" stroke="none" stroke-width="1"/></g><g><line x1="540" y1="427.04273" x2="728" y2="312.90909" fill="none" stroke="#ff7c7c" stroke-width="1.5"/><circle cx="540" cy="427.04273" r="0.25" data-paper-data="{&quot;type&quot;:&quot;Ellipse&quot;}" fill="#bbbbbb" stroke="none" stroke-width="1"/><circle cx="728" cy="312.90909" r="0.25" data-paper-data="{&quot;type&quot;:&quot;Ellipse&quot;}" fill="#bbbbbb" stroke="none" stroke-width="1"/></g><g><line x1="540" y1="491.78837" x2="728" y2="536.08" fill="none" stroke="#68b4ff" stroke-width="1.5"/><circle cx="540" cy="491.78837" r="0.25" data-paper-data="{&quot;type&quot;:&quot;Ellipse&quot;}" fill="#bbbbbb" stroke="none" stroke-width="1"/><circle cx="728" cy="536.08" r="0.25" data-paper-data="{&quot;type&quot;:&quot;Ellipse&quot;}" fill="#bbbbbb" stroke="none" stroke-width="1"/></g><g><line x1="540" y1="415.11835" x2="728" y2="358.11429" fill="none" stroke="#ffa4a4" stroke-width="1.5"/><circle cx="540" cy="415.11835" r="0.25" data-paper-data="{&quot;type&quot;:&quot;Ellipse&quot;}" fill="#bbbbbb" stroke="none" stroke-width="1"/><circle cx="728" cy="358.11429" r="0.25" data-paper-data="{&quot;type&quot;:&quot;Ellipse&quot;}" fill="#bbbbbb" stroke="none" stroke-width="1"/></g><g><line x1="540" y1="436.26895" x2="728" y2="531.5" fill="none" stroke="#6eb6ff" stroke-width="1.5"/><circle cx="540" cy="436.26895" r="0.25" data-paper-data="{&quot;type&quot;:&quot;Ellipse&quot;}" fill="#bbbbbb" stroke="none" stroke-width="1"/><circle cx="728" cy="531.5" r="0.25" data-paper-data="{&quot;type&quot;:&quot;Ellipse&quot;}" fill="#bbbbbb" stroke="none" stroke-width="1"/></g><g><line x1="540" y1="470.54082" x2="728" y2="646" fill="none" stroke="#0080ff" stroke-width="1.5"/><circle cx="540" cy="470.54082" r="0.25" data-paper-data="{&quot;type&quot;:&quot;Ellipse&quot;}" fill="#bbbbbb" stroke="none" stroke-width="1"/><circle cx="728" cy="646" r="0.25" data-paper-data="{&quot;type&quot;:&quot;Ellipse&quot;}" fill="#bbbbbb" stroke="none" stroke-width="1"/></g></g><g class="domain" transform="translate(518,188)" fill="none" font-size="10" font-family="sans-serif" text-anchor="end" style="pointer-events: none;"><path class="domain" stroke="#444" d="M-6,0.5H0.5V458.5H-6"/><g class="tick" opacity="1" transform="translate(0,0)"><line stroke="#444" x2="-6" y1="0.5" y2="0.5"/><text fill="#444" x="-9" y="0.5" dy="0.32em">1.0</text></g><g class="tick" opacity="1" transform="translate(0,45.80000000000001)"><line stroke="#444" x2="-6" y1="0.5" y2="0.5"/><text fill="#444" x="-9" y="0.5" dy="0.32em">0.9</text></g><g class="tick" opacity="1" transform="translate(0,91.59999999999997)"><line stroke="#444" x2="-6" y1="0.5" y2="0.5"/><text fill="#444" x="-9" y="0.5" dy="0.32em">0.8</text></g><g class="tick" opacity="1" transform="translate(0,137.40000000000003)"><line stroke="#444" x2="-6" y1="0.5" y2="0.5"/><text fill="#444" x="-9" y="0.5" dy="0.32em">0.7</text></g><g class="tick" opacity="1" transform="translate(0,183.2)"><line stroke="#444" x2="-6" y1="0.5" y2="0.5"/><text fill="#444" x="-9" y="0.5" dy="0.32em">0.6</text></g><g class="tick" opacity="1" transform="translate(0,229)"><line stroke="#444" x2="-6" y1="0.5" y2="0.5"/><text fill="#444" x="-9" y="0.5" dy="0.32em">0.5</text></g><g class="tick" opacity="1" transform="translate(0,274.79999999999995)"><line stroke="#444" x2="-6" y1="0.5" y2="0.5"/><text fill="#444" x="-9" y="0.5" dy="0.32em">0.4</text></g><g class="tick" opacity="1" transform="translate(0,320.6)"><line stroke="#444" x2="-6" y1="0.5" y2="0.5"/><text fill="#444" x="-9" y="0.5" dy="0.32em">0.3</text></g><g class="tick" opacity="1" transform="translate(0,366.4)"><line stroke="#444" x2="-6" y1="0.5" y2="0.5"/><text fill="#444" x="-9" y="0.5" dy="0.32em">0.2</text></g><g class="tick" opacity="1" transform="translate(0,412.2)"><line stroke="#444" x2="-6" y1="0.5" y2="0.5"/><text fill="#444" x="-9" y="0.5" dy="0.32em">0.1</text></g><g class="tick" opacity="1" transform="translate(0,458)"><line stroke="#444" x2="-6" y1="0.5" y2="0.5"/><text fill="#444" x="-9" y="0.5" dy="0.32em">0.0</text></g><g class="axis-label" transform="rotate(90) translate(456,5)"><text class="attribute" dy="0.3em" style="text-anchor: end;" fill="#444">Gop % of Votes</text></g></g><g class="domain" transform="translate(734,188)" fill="none" font-size="10" font-family="sans-serif" text-anchor="end" style="pointer-events: none;"><path class="domain" stroke="#444" d="M-6,0.5H0.5V458.5H-6"/><g class="tick" opacity="1" transform="translate(0,0)"><line stroke="#444" x2="-6" y1="0.5" y2="0.5"/><text fill="#444" x="-9" y="0.5" dy="0.32em">1.0</text></g><g class="tick" opacity="1" transform="translate(0,45.80000000000001)"><line stroke="#444" x2="-6" y1="0.5" y2="0.5"/><text fill="#444" x="-9" y="0.5" dy="0.32em">0.9</text></g><g class="tick" opacity="1" transform="translate(0,91.59999999999997)"><line stroke="#444" x2="-6" y1="0.5" y2="0.5"/><text fill="#444" x="-9" y="0.5" dy="0.32em">0.8</text></g><g class="tick" opacity="1" transform="translate(0,137.40000000000003)"><line stroke="#444" x2="-6" y1="0.5" y2="0.5"/><text fill="#444" x="-9" y="0.5" dy="0.32em">0.7</text></g><g class="tick" opacity="1" transform="translate(0,183.2)"><line stroke="#444" x2="-6" y1="0.5" y2="0.5"/><text fill="#444" x="-9" y="0.5" dy="0.32em">0.6</text></g><g class="tick" opacity="1" transform="translate(0,229)"><line stroke="#444" x2="-6" y1="0.5" y2="0.5"/><text fill="#444" x="-9" y="0.5" dy="0.32em">0.5</text></g><g class="tick" opacity="1" transform="translate(0,274.79999999999995)"><line stroke="#444" x2="-6" y1="0.5" y2="0.5"/><text fill="#444" x="-9" y="0.5" dy="0.32em">0.4</text></g><g class="tick" opacity="1" transform="translate(0,320.6)"><line stroke="#444" x2="-6" y1="0.5" y2="0.5"/><text fill="#444" x="-9" y="0.5" dy="0.32em">0.3</text></g><g class="tick" opacity="1" transform="translate(0,366.4)"><line stroke="#444" x2="-6" y1="0.5" y2="0.5"/><text fill="#444" x="-9" y="0.5" dy="0.32em">0.2</text></g><g class="tick" opacity="1" transform="translate(0,412.2)"><line stroke="#444" x2="-6" y1="0.5" y2="0.5"/><text fill="#444" x="-9" y="0.5" dy="0.32em">0.1</text></g><g class="tick" opacity="1" transform="translate(0,458)"><line stroke="#444" x2="-6" y1="0.5" y2="0.5"/><text fill="#444" x="-9" y="0.5" dy="0.32em">0.0</text></g><g class="axis-label" transform="rotate(90) translate(456,5)"><text class="attribute" dy="0.3em" style="text-anchor: end;" fill="#444">Gop % of Seats</text></g></g><g transform="translate(788,200)"><rect height="100" width="8" rx="0" ry="0" class="color-scale-gradient" style="fill: url(&quot;#gradient-Path2&quot;); pointer-events: none; stroke-width: 1;" stroke="#888"/><text class="color-scale-label" y="-14" dy="0.3em" fill="#444" style="font-size: 10px; font-family: Arial, sans-serif;">Gop % of Seats</text><g transform="translate(26,-10.000000000000043)"><path d="M-14,12h6" fill="none" stroke="#888"/><text dy="0.3em" y="12" x="-6" fill="#444" style="font-size: 10px; font-family: Arial, sans-serif;">1</text><defs><linearGradient id="gradient-Path2" x1="0" y1="0" x2="0" y2="1"><stop offset="1.9999999999999574%" stop-color="#ff0000"/><stop offset="21.199999999999996%" stop-color="#ff5e5e"/><stop offset="40.400000000000006%" stop-color="#ffb0b0"/><stop offset="61.51999999999999%" stop-color="#b9dcff"/><stop offset="78.8%" stop-color="#51a8ff"/><stop offset="98%" stop-color="#0080ff"/></linearGradient></defs></g><g transform="translate(26,9.199999999999996)"><path d="M-14,12h6" fill="none" stroke="#888"/><text dy="0.3em" y="12" x="-6" fill="#444" style="font-size: 10px; font-family: Arial, sans-serif;">0.8</text><defs/></g><g transform="translate(26,28.400000000000006)"><path d="M-14,12h6" fill="none" stroke="#888"/><text dy="0.3em" y="12" x="-6" fill="#444" style="font-size: 10px; font-family: Arial, sans-serif;">0.6</text><defs/></g><g transform="translate(26,49.51999999999999)"><path d="M-14,12h6" fill="none" stroke="#888"/><text dy="0.3em" y="12" x="-6" fill="#444" style="font-size: 10px; font-family: Arial, sans-serif;">0.38</text><defs/></g><g transform="translate(26,66.8)"><path d="M-14,12h6" fill="none" stroke="#888"/><text dy="0.3em" y="12" x="-6" fill="#444" style="font-size: 10px; font-family: Arial, sans-serif;">0.2</text><defs/></g><g transform="translate(26,86)"><path d="M-14,12h6" fill="none" stroke="#888"/><text dy="0.3em" y="12" x="-6" fill="#444" style="font-size: 10px; font-family: Arial, sans-serif;">0</text><defs/></g></g></g></svg>